<svg xmlns="http://www.w3.org/2000/svg" fill="none" width="400" height="400" viewBox="0 0 400 400"><defs><clipPath id="a"><rect width="400" height="400" rx="0"/></clipPath><filter id="b" filterUnits="objectBoundingBox" color-interpolation-filters="sRGB" x="-200" y="-200" width="867.493" height="867.722"><feFlood flood-opacity="0" result="BackgroundImageFix"/><feBlend in="SourceGraphic" in2="BackgroundImageFix" result="shape"/><feGaussianBlur stdDeviation="50" result="effect1_foregroundBlur"/></filter><linearGradient x1=".828" y1=".88" x2=".351" y2=".83" id="c"><stop offset="0%" stop-color="#FB0"/><stop offset="98.571%" stop-color="#FFFB00"/></linearGradient><filter id="d" filterUnits="objectBoundingBox" color-interpolation-filters="sRGB" x="-20" y="-20" width="840" height="94"><feFlood flood-opacity="0" result="BackgroundImageFix"/><feBlend in="SourceGraphic" in2="BackgroundImageFix" result="shape"/><feGaussianBlur stdDeviation="5" result="effect1_foregroundBlur"/></filter><clipPath id="e"><rect x="875" y="362" width="26" height="26" rx="0"/></clipPath></defs><g style="mix-blend-mode:passthrough" clip-path="url(#a)"><g style="mix-blend-mode:passthrough"><g style="mix-blend-mode:passthrough"><ellipse cx="-85.113" cy="78.608" rx="233.747" ry="233.861" fill="url(#c)" transform="rotate(-30 -318.86 -155.253)" filter="url(#b)"/></g><path d="M715.313 159.97h8.125v4.516h-20.344v3.484h19.187v4.484h-19.187v3.532h19.187v4.468h-19.187v4.313h20.343v4.531h-18.875q2.954 3.578 8.313 5.875 5.203 2.234 11.39 2.703l-2.812 4.89q-6.078-.733-11.547-3.327-6.078-2.922-9.515-7.328-7.172 9.515-23.657 10.812l1.672-5.25q5.25-.062 10.453-2.547 4.985-2.39 7.422-5.828h-18.765v-4.531h20.015v-4.313h-18.875v-4.468h18.875v-3.532h-18.875v-4.484h18.875v-3.484h-20.015v-4.516h8.062q-.312-2.61-.469-3.844h5.672q.313 1.922.563 3.844H709.5q.406-2.61.516-3.844h5.765q-.156 1.922-.468 3.844zm20.39 37.75h33.594v-36.094h-33.594v36.094zm-2.656 4.578q-2.703-.047-2.75-2.766v-42.468h41.656q2.703.047 2.75 2.75v42.484h-41.656zm28.812-29.906v12.219q0 6.25-1.562 10.562h-5.828q1.312-2.703 1.718-5.094.375-1.984.375-5.312v-12.375h-4.843q-.578 6.031-2.594 12.594-2.078 6.593-4.531 10.187h-5.922q2.703-3.844 4.734-9.469 2.328-6.437 2.953-13.312h-7.906v-4.36h18.11v-4.015h5.296v4.016h5v4.359h-5zm55.438-4.578h-25.594v3.015h25.594v-3.015zm0-3.578v-3.016h-25.594v3.016h25.594zm-9.516 32.906h20.375l-.937 4.687h-20.172q-10.094-.203-16.219-6.5-1.453 4.11-3.797 7.594h-6.14q6.031-8.531 6.547-18.203h5.421q-.156 2.75-.625 5.516 4.204 4.984 10.078 6.39v-14.5h-20.953v-4.265h46.391v4.265h-19.969v4.719h17.578v4.219h-17.578v6.078zm-21.578-39.984h33.891q2.703.046 2.703 2.546v15.235h-33.735q-2.859 0-2.859-2.797v-14.984zm47.203 15.546h46.188v5.094h-46.188v-5.094zm89.61 7.907q1.453 10.765 8.89 16.375l-4.953 2.922q-6.812-6.25-8.625-18-2.703.625-4.266.843v8.735q0 3.062-.468 5.453-.469 2.39-1.766 5.984h-5.984q1.562-3.64 2.14-6.094.563-2.39.563-5.093v-.72q-8.735 5.97-23.235 9.204l1.766-5.406q5.766-1.156 11.438-3.485 5.984-2.453 10.031-5.515V183q0-.36-.094-1.094-9.156 5.625-22.422 8.329l1.828-5.203q10.547-1.922 19.344-7.172-.734-1.516-1.453-2.61-7.859 3.547-19.562 5.516l1.828-4.938q10.078-1.562 17.156-4.734h-11.906v-4h30.265v4h-10.297q-1.453 1.047-2.968 1.875 2.234 2.75 3.125 5.563 9.984-1.766 16.89-5.875v4.828q-3.109 1.718-7.265 3.125zm-11.032-21.22h16.328q3.172 0 2.969 3.126-.312 3.281-1.156 6.453h-5.297q.734-2.656 1.094-5.406h-34.578v5.406h-5.203v-9.578h19.39q-.359-1.61-.937-3.266H911q.625 1.813.984 3.266zm30.735 25.017q0 8.53-1.672 14.718h-4.359q1.812-6.969 1.812-14.719v-10.562h4.219v10.563zm14.187 1.718q0 6.344 1.25 11.39h-4.422q-1.031-5.202-1.031-11.437v-12.234h4.203v12.281zm4.219-25.375q6.969 1.14 11.594 2.656l-1.766 4.25q-5.156-1.5-11.859-2.64l2.031-4.266zm-.156 11.438q6.031.984 11.281 2.437l-1.656 4.328q-5.313-1.562-11.547-2.453l1.922-4.312zm18.562 15.594v15.14h-5.515v-14.672l-14.969 1.25v-4.734l14.969-1.188v-27.453h5.515v26.985l4.375-.36v4.672l-4.375.36zm-29.172-16.641v31.781h-5.14v-31.781h-8.125v-4.266h8.125v-5.25h-7.594l.828-4.265h11.078q4.828 0 8.157-.922l-.719 4.312q-2.547.781-6.61.875v5.25h7.75v4.266h-7.75zm73.844 20.594q5.297 4.375 12.375 6.922l-4.312 4.312q-6.719-2.86-12.125-7.594-7.438 5.828-17.203 7.86l1.609-5.672q6.547-2.188 11.641-6.14-5.25-5.97-7.532-13.563h5.766q1.875 5.453 5.781 9.984 5.188-5.406 7.266-12.281h-20.531v-4.516h10.765v-5.781h-11.547v-4.578h11.547v-4.563h5.453v4.563h12.063v4.578h-12.063v5.781h7.906q1.36 0 2.079.828.671.781.468 1.969-2.343 10.297-9.406 17.89zM1000.234 183v8.219q0 3.594-.468 5.922-.469 2.39-1.922 5.781h-5.891q1.719-3.687 2.344-6.14.578-2.282.578-5.204v-7.687l-5.781.937v-5l5.781-.875v-10.406h-5.781v-4.734h5.781v-7.688h5.359v7.688h4.719v4.734h-4.719v9.563l4.625-.72v4.892l-4.625.718zm69.875-11.015q5.313 0 9.36.468l-.766 2.641q-4.422-.469-9.422-.469l.828-2.64zm8.688-1.094q-3.375-.375-9.406-.469l.828-2.61q5.093 0 9.359.532l-.781 2.547zm-20.063 4.156q-3.796-.422-9.515-.422l.765-2.64q5.828-.11 9.578.468l-.828 2.594zm.094-4.11q-4.578-.515-9.453-.515l.766-2.61q5 0 9.578.532l-.891 2.594zm12.438 25.735q3.015.781 6.281 1.781v4.875q-13.563-4.047-26.938-7.218v-4.625q6.969 1.609 14.829 3.64 4.937-2.656 9.359-5.672h-28.391v-4h16.844q-1.609-2.765-2.906-4.578h5.515q1.344 1.813 2.953 4.578h11.594q1.672 0 2.188 1.188.515 1.203-.563 2.453-3.797 3.484-10.765 7.578zm-10.297-22.094h7.015q6.969 4.578 20.438 6.86l-2.813 4.531q-13.406-2.703-21-8.422-7.812 5.969-24.078 8.984l1.453-5.093q12.422-2.172 18.985-6.86zm6.281-8.218v6.922h-5.344v-6.922h-14.468v6.812h-5.25V162.72h19.718v-1.922h-17.687v-3.64h40.875v3.64h-17.844v1.922h16.906q1.36 0 2.188.781.781.735.781 2.078 0 2.61-.625 7.594h-5.406q.718-4.266.781-6.812h-14.625zm33.188 35.422q-1.313 0-2.032-.735-.734-.734-.734-2.031v-12.172h35.781q1.297 0 2.031.734.719.735.719 2.032v12.172h-35.765zm30.156-4.172v-6.547h-27.36v6.547h27.36zm-8.844-17.47h16.531v4h-37.062v-.046h-3.391v-13.266q-2.39 1.985-4.984 3.125l1.344-6.656q5.359-4.422 7.437-11.172h5.672q-.469 1.766-1.25 3.531h9.937q-.734-2.187-1.359-3.64h5.719q.844 1.969 1.297 3.64h16.171v3.954h-16.062v3.125h14.609v3.578h-14.609v3.125h14.609v3.64h-14.609v3.063zm-5.406 0v-3.062h-13.156v3.063h13.156zm0-6.702v-3.125h-13.156v3.125h13.156zm0-6.703v-3.125h-12.328q-.36.625-.828 1.343v1.782h13.156zm61.828-10.61q1.516 5.297 5.14 10.188 3.75 5.047 9.579 9.25l-5.094 3.75q-11.547-9.047-15.547-23.188h5.922zm-13.625.047q-1.406 7.172-6.656 13.672-5.407 6.719-13.203 10.453l1.453-6.86q4.578-3.234 7.797-7.484 3.531-4.734 4.687-9.78h5.922zm16.844 43.781q-17.672 1.453-30.11 1.766-2.75.11-2.75-2.438v-2.14q3.172-4.047 7.907-11.531 4.468-7.125 6.703-11.5h6.297q-6.454 12.484-13.579 22.515 10.61-.265 23.36-1.344-3.485-7.187-6.563-12.75h5.875q4.735 8.016 10.407 20.485h-6.188q-.422-.984-1.359-3.063zm60.64-8.734q0 3.594-.469 5.922-.468 2.39-1.921 5.781h-6.25q1.671-3.64 2.297-6.14.562-2.344.562-5.204v-29.53h-36.609v-4.688h39.578q2.812 0 2.812 2.656v31.203zm-39.156 3.844q-1.453 0-2.297-.875-.828-.89-.828-2.297v-16.266h27.609q1.563 0 2.5.828.938.828.938 2.235v16.375h-27.922zm2.281-4.578h20.188v-10.297h-20.188v10.297zm27.203-24.016v4.578h-34.89v-4.578h34.89z" fill="#111925"/><g style="mix-blend-mode:passthrough"><path d="M536.297 250.46v1.586h8.812v2.274h-7.468v1.539h7.468v2.328h-9.601v1.586h20.976v-1.586h-9.601v-2.328h7.539v-1.54h-7.54v-2.273h8.813v-1.586h-5.328c.406-.742.719-1.515.961-2.328l-1.851-.242c-.188.867-.5 1.727-.914 2.57h-5.016a25.333 25.333 0 0 0-1.102-2.523l-1.828.289c.438.672.82 1.414 1.156 2.234h-5.476zm8.976 9.938a10.11 10.11 0 0 1-.476 1.945h-8.735v1.625h7.946a7.182 7.182 0 0 1-1.54 1.734c-1.538 1.22-4.03 2.157-7.515 2.805l.727 1.68c3.906-.813 6.648-1.922 8.203-3.336.82-.766 1.515-1.633 2.039-2.64 1.586 2.882 5.023 4.85 10.297 5.906l.914-1.633c-4.727-.79-7.922-2.305-9.578-4.516h8.406v-1.625h-9.29c.165-.531.29-1.133.384-1.758l-1.782-.187zm18.508-5.57v1.562h6.719c-1.75 2.64-4.125 4.75-7.125 6.29l.906 1.53c3.172-1.843 5.696-4.367 7.563-7.586v6.602c0 .719-.336 1.078-.961 1.078-.79 0-1.633-.047-2.516-.117l.36 1.61h2.734c1.344 0 2.039-.72 2.039-2.134v-7.273h2.977v-1.563H573.5v-2.93h-1.656v2.93h-8.063zm15.938-5.735h-19.446v20.977h1.68v-1.078h16.086v1.078h1.68v-20.977zm-17.766 18.313V250.67h16.086v16.735h-16.086zm29.094-16.758l-1.445.89c2.117 2.47 3.773 4.704 4.992 6.72l1.468-1.009c-1.156-1.867-2.835-4.078-5.015-6.601zm8.258 11.765c1.82 2.516 3.289 4.891 4.414 7.149l1.32-1.32c-1.344-2.493-3-4.993-4.969-7.485.14-.36.266-.719.383-1.078 1.008-3.172 1.516-7.016 1.516-11.57h-1.805c-.023 4.633-.523 8.445-1.531 11.445-1.32 3.555-4.04 6.484-8.117 8.836l1.156 1.414c3.5-2.016 6.047-4.492 7.633-7.39zm-14.211 4.891c2.804-1.031 5.445-2.25 7.898-3.672l-.484-1.68a40.484 40.484 0 0 1-5.57 2.813v-16.031h-1.774v15.625c0 .547-.219.984-.648 1.32l.578 1.625zM626.695 247.554c-1.273.336-2.28.984-3 1.945-.75.938-1.11 2.04-1.11 3.336 0 .813.196 1.508.626 2.04.437.53.96.82 1.633.82a2.15 2.15 0 0 0 1.445-.532c.383-.359.57-.82.57-1.367 0-.554-.187-1.008-.523-1.367-.39-.36-.82-.531-1.32-.531-.29 0-.485.023-.602.094-.023-.57.188-1.149.625-1.68.43-.57.984-.961 1.656-1.172v-1.586zm-5.836 0c-1.273.336-2.28.984-3 1.945-.742.938-1.101 2.04-1.101 3.336 0 .813.21 1.508.648 2.04.407.53.938.82 1.61.82a2.19 2.19 0 0 0 1.46-.532c.36-.359.555-.82.555-1.367a1.86 1.86 0 0 0-.554-1.367c-.36-.36-.79-.531-1.297-.531-.29 0-.477.023-.602.094-.023-.57.195-1.149.649-1.68.437-.57.96-.961 1.632-1.172v-1.586zM643.938 260.61l-1.008.938a18.29 18.29 0 0 1 2.547 1.82h-7.274v1.445h10.805a22.753 22.753 0 0 1-4.063 2.688c-1.39-.532-2.851-.985-4.367-1.414l-.86 1.265c3.212.89 6.36 2.117 9.407 3.649l.89-1.368a50.195 50.195 0 0 0-3.359-1.484c1.68-1.008 3.211-2.21 4.657-3.578v-1.203h-5.118l.602-.695a14.31 14.31 0 0 0-2.86-2.063zm.242-2.617c-2.664 1.805-6.07 3.289-10.203 4.492l.96 1.39c3.891-1.226 7.25-2.835 10.04-4.85 2.492 2.015 5.828 3.624 9.984 4.85l.96-1.413c-4.374-1.157-7.757-2.641-10.109-4.422v-4.344h7.32v3.219h1.657v-4.563h-8.976v-1.437h7.992v-1.39h-17.617v1.39h7.992v1.437h-8.977v4.563h1.656v-3.22h7.32v4.298zm-6.117-2.977v1.133h4.89v-1.133h-4.89zm-.047 2.375v1.133h4.968v-1.133h-4.968zm9.07-2.375v1.133h4.82v-1.133h-4.82zm-.024 2.375v1.133h4.922v-1.133h-4.922zm30.407 6.461h-16.125v7.008h1.703v-1.18h12.719v1.18h1.703v-7.008zm-14.422 4.297v-2.812h12.719v2.812h-12.72zm-1.703-13.156v6.984h17.664v-1.46h-7.68v-1.805h6.29v-1.368h-6.29v-1.68h6.235v-1.366h-6.235v-1.75h7.297v-1.438h-6.984a22.2 22.2 0 0 0-1.086-2.5l-1.774.29c.43.67.813 1.39 1.18 2.21h-5.953c.36-.703.672-1.398.953-2.117l-1.68-.336c-1.031 2.687-2.804 5.187-5.304 7.469l.53 1.703a26.99 26.99 0 0 0 2.837-2.836zm8.281 5.523H663v-1.804h6.625v1.804zm0-3.172H663v-1.68h6.625v1.68zm0-3.046H663v-1.485c.047-.101.094-.172.164-.265h6.461v1.75zm22.366.783v5.662h-5.696v1.769h5.696v5.696h1.769v-5.696h5.67v-1.77h-5.67v-5.661h-1.77zm35.514 6.685l-2.156.36v-13.274h-1.758v13.563l-7.726 1.242.242 1.68 7.484-1.22v6.579h1.758v-6.867l2.422-.383-.266-1.68zm-9.36-11.664l-1.226 1.172c1.875 1.297 3.336 2.547 4.399 3.719l1.172-1.195c-1.172-1.25-2.618-2.477-4.344-3.696zm-.718 5.516l-1.226 1.18c1.875 1.39 3.359 2.687 4.437 3.906l1.227-1.219c-1.196-1.297-2.688-2.57-4.438-3.867zm-11.21-.383v1.656h3.741c-.906 2.64-2.375 5.016-4.414 7.078l.743 1.922c1.632-1.922 2.906-4.054 3.867-6.406v11.21h1.726V259.72c.867.844 1.899 1.993 3.149 3.461l.984-1.468a64.449 64.449 0 0 0-4.133-3.649v-1.172h3.313v-1.656h-3.313v-3.844a35.979 35.979 0 0 0 3.266-.742l-.602-1.633c-2.398.719-5.18 1.227-8.304 1.469l.336 1.633a74.772 74.772 0 0 0 3.578-.438v3.555h-3.938zm26.28 15.266c1.391 0 2.086-.72 2.086-2.164v-6.883a50.219 50.219 0 0 0 2.594-1.32v-1.68c-.844.476-1.703.906-2.594 1.344v-4.97h2.547v-1.655h-2.547v-4.391h-1.68v4.39h-2.906v1.657h2.907v5.664c-1.102.406-2.211.765-3.36 1.055l.43 1.703a53.957 53.957 0 0 0 2.93-1.078v5.734c0 .719-.336 1.078-.985 1.078-.578 0-1.172-.047-1.797-.117l.36 1.633h2.015zm5.493-18.266v1.656h5.765v3.914h-5.304v1.633h1.273c.672 2.469 1.992 4.68 4.008 6.649-1.758 1.367-3.914 2.468-6.461 3.312l.82 1.438c2.688-.961 4.969-2.188 6.836-3.672 1.633 1.343 3.672 2.57 6.078 3.625l.906-1.446c-2.273-.93-4.218-2.015-5.804-3.234 1.945-1.875 3.336-4.133 4.172-6.773v-1.532h-4.844v-3.914h5.781v-1.656h-5.781v-3.406h-1.68v3.406h-5.765zm3.343 7.203h7.219a14.923 14.923 0 0 1-3.672 5.64c-1.726-1.655-2.929-3.53-3.547-5.64zM766.648 247.554c-.601 0-1.086.172-1.445.531-.383.336-.578.79-.578 1.367 0 .524.172.985.531 1.344.36.36.79.547 1.32.547.266 0 .454-.047.602-.094 0 .578-.195 1.133-.625 1.703a3.964 3.964 0 0 1-1.656 1.157v1.586c1.25-.368 2.258-1.016 3-1.946a5.433 5.433 0 0 0 1.101-3.336c0-.843-.21-1.539-.625-2.07-.43-.523-.976-.789-1.625-.789zm-5.836 0c-.601 0-1.078.172-1.46.531-.391.336-.555.79-.555 1.367 0 .524.164.985.555 1.344.336.36.765.547 1.289.547.265 0 .46-.047.601-.094 0 .578-.21 1.133-.648 1.703a3.75 3.75 0 0 1-1.633 1.157v1.586c1.25-.368 2.258-1.016 3-1.946a5.39 5.39 0 0 0 1.11-3.336c0-.843-.22-1.539-.65-2.07-.429-.523-.96-.789-1.609-.789zM789.695 252.187h-3.867c.485-1.203.844-2.524 1.125-3.938l-1.726-.242a21.37 21.37 0 0 1-1.032 4.18h-2.234v17.062h1.68v-2.062h4.375v1.367h1.68v-16.367zm-6.054 13.39v-5.257h4.375v5.257h-4.375zm0-6.812v-4.945h4.375v4.945h-4.375zm10.226-1.008l-1.39.86c1.656 1.968 2.976 3.75 3.96 5.328l1.368-.961c-.914-1.485-2.211-3.235-3.938-5.227zm8.235-5.547h-7.657c.43-1.25.766-2.593 1.055-4.008l-1.703-.218c-.625 3.414-1.75 6.289-3.43 8.64l1.031 1.368c.938-1.22 1.727-2.586 2.399-4.102h6.601c-.046 6.914-.148 11.063-.289 12.406-.195 1.227-.836 1.852-1.968 1.852-.743 0-1.61-.024-2.618-.07l.407 1.585c1.156.047 1.968.094 2.453.094 2.015 0 3.117-.937 3.36-2.758.241-1.875.359-6.82.359-14.789zm7.03-4.078v10.195h-3.171v10.829h1.656v-1.774h6.914v-9.055h-3.718v-4.46h4.796v-1.586h-4.797v-4.149h-1.68zm-1.515 17.664v-5.883h5.258v5.883h-5.258zm18.625-12.406l-6.43 1.172a87.062 87.062 0 0 1-.218-6.453h-1.68c0 2.492.078 4.726.219 6.742l-3.43.625.266 1.586 3.304-.602c.149 1.703.391 3.188.704 4.485.234 1.086.5 2.093.812 3-1.726 1.78-3.672 3.125-5.86 4.062l.985 1.32c1.945-.796 3.797-2.046 5.524-3.726a11.11 11.11 0 0 0 1.054 1.922c1.008 1.437 1.946 2.164 2.86 2.164 1.078 0 1.921-1.633 2.492-4.899l-1.414-.765c-.383 2.492-.836 3.742-1.367 3.765-.407 0-.961-.578-1.633-1.726a11.986 11.986 0 0 1-.813-1.703c1.508-1.758 2.922-3.89 4.219-6.414l-1.344-.907c-1.008 2.086-2.156 3.93-3.453 5.516-.195-.625-.36-1.32-.508-2.062a38.93 38.93 0 0 1-.601-4.344l6.554-1.18-.242-1.578zm-3.953-4.805l-1.226.766c1.171 1.273 2.085 2.43 2.757 3.484l1.274-.89c-.672-.961-1.61-2.063-2.805-3.36zm26.922 12.438h-9.36v8.898h1.68v-1.054h6v1.054h1.68v-8.898zm-7.68 6.21v-4.609h6v4.61h-6zm-10.101-.335h4.922v1.11h1.484v-8.071l.867 1.156c2.305-.96 4.297-2.094 5.977-3.406 1.578 1.242 3.476 2.351 5.71 3.336l.743-1.54c-2.063-.788-3.813-1.726-5.305-2.812 1.54-1.484 2.735-3.187 3.555-5.11v-1.32h-6.508c.266-.578.531-1.171.82-1.82l-1.703-.36c-1.086 2.587-2.453 4.68-4.133 6.282l1.133 1.32a16.09 16.09 0 0 0 1.867-2.156c.672 1.078 1.54 2.11 2.547 3.07-1.515 1.18-3.36 2.211-5.57 3.07v-9.905h-7.969v18.265h1.563v-1.11zm4.922-1.531h-1.782v-6.368h1.782v6.368zm0-7.875h-1.782v-6.172h1.782v6.172zm-3.172-6.172v6.172h-1.75v-6.172h1.75zm-1.75 7.68h1.75v6.367h-1.75v-6.368zm13.101-3.383a13.252 13.252 0 0 1-2.781-3.383c.047-.117.117-.242.219-.36h5.445c-.719 1.344-1.68 2.594-2.883 3.743zm9.672-6.602v7.492h3.266v10.438c-.625.148-1.25.312-1.922.46v-8.35h-1.531v8.687c-.391.07-.797.14-1.203.242l.5 1.648c3.312-.695 6.195-1.46 8.671-2.273v-1.735c-.914.29-1.875.578-2.882.868v-4.461h2.617v-1.61h-2.617v-3.914h2.234v-7.492h-7.133zm5.524 5.93h-3.891V250.6h3.89v4.344zm13.437-2.688l-5.469.742v-4.968h-1.758v5.21l-3.523.461.242 1.555 3.313-.43c.023 1.172.093 2.305.21 3.383l-3.859.625.235 1.586 3.82-.625c.094.719.242 1.414.383 2.086a21.66 21.66 0 0 0 .984 3.172c-1.703 1.242-3.672 2.203-5.883 2.875l1.008 1.367c1.992-.57 3.867-1.508 5.594-2.758.219.383.453.743.695 1.079 1.032 1.398 2.14 2.117 3.29 2.164 1.179 0 2.062-1.493 2.687-4.438l-1.461-.984c-.383 2.445-.867 3.695-1.422 3.695-.617 0-1.344-.601-2.11-1.758-.14-.234-.288-.476-.406-.742 1.414-1.219 2.735-2.687 3.961-4.414l-1.343-.89a22.507 22.507 0 0 1-3.266 3.75 19.613 19.613 0 0 1-.79-2.954 12.851 12.851 0 0 1-.218-1.515l6.219-.985-.266-1.586-6.125.985a48.061 48.061 0 0 1-.187-3.36l5.687-.742-.242-1.586zm-2.906-4.32l-1.313.844c1.172 1.148 2.11 2.203 2.782 3.164l1.296-.914c-.648-.86-1.562-1.891-2.765-3.094zm15.937 1.633v1.703h11.5v-1.703h-11.5zm-.648 6.093v1.711h7.562v10.055c0 .625-.406.938-1.179.938-1.055 0-2.133-.047-3.282-.125l.36 1.703h3.523c1.539 0 2.328-.696 2.328-2.086v-10.485h3.891v-1.71h-13.203zm-3.141-7.414c-1.133 2.258-2.93 4.274-5.43 6.047l.508 1.735c2.977-2.047 5.133-4.399 6.477-7.063l-1.555-.719zm1.125 5.477c-1.343 2.664-3.476 5.016-6.406 7.078l.5 1.727a30.437 30.437 0 0 0 3.148-2.493v10.008h1.704v-11.765a19.013 19.013 0 0 0 2.617-3.836l-1.563-.72zM920.695 247.554c-1.273.336-2.28.984-3 1.945-.75.938-1.11 2.04-1.11 3.336 0 .813.196 1.508.626 2.04.437.53.96.82 1.633.82a2.15 2.15 0 0 0 1.445-.532c.383-.359.57-.82.57-1.367 0-.554-.187-1.008-.523-1.367-.39-.36-.82-.531-1.32-.531-.29 0-.485.023-.602.094-.023-.57.188-1.149.625-1.68.43-.57.984-.961 1.656-1.172v-1.586zm-5.836 0c-1.273.336-2.28.984-3 1.945-.742.938-1.101 2.04-1.101 3.336 0 .813.21 1.508.648 2.04.407.53.938.82 1.61.82a2.19 2.19 0 0 0 1.46-.532c.36-.359.555-.82.555-1.367a1.86 1.86 0 0 0-.554-1.367c-.36-.36-.79-.531-1.297-.531-.29 0-.477.023-.602.094-.023-.57.195-1.149.649-1.68.437-.57.96-.961 1.632-1.172v-1.586zM928.984 249.546v1.516h4.899v1.726h-4.297v1.414h4.25c-.047.579-.14 1.149-.266 1.704h-5.086v1.515h4.54c-.102.14-.172.266-.243.406-.742 1.032-2.062 1.852-3.937 2.47l.89 1.398c2.016-.672 3.477-1.633 4.391-2.836.29-.43.555-.914.766-1.438h4.78v-1.515h-4.343c.117-.524.188-1.079.235-1.704h3.53v-1.414h-3.507v-1.726h4.086v-1.516h-4.086v-1.46h-1.703v1.46h-4.899zm9.368 10.227v2.18h-7.32v6.843h1.726v-5.234h5.594v6.695h1.726v-6.695h5.688v2.812c0 .453-.29.696-.844.696l-1.914-.047.43 1.601h2.039c1.32 0 1.992-.617 1.992-1.867v-4.805h-7.39v-2.18h-1.727zm2.78-10.781v11.406h1.727V250.6h4.133a16.638 16.638 0 0 1-2.14 3.242c1.632 1.414 2.476 2.445 2.476 3.094 0 .719-.672 1.086-2.015 1.11-.391 0-.82-.055-1.344-.102l.617 1.632c1.062 0 1.898-.093 2.523-.265 1.297-.281 1.97-1.078 1.993-2.375 0-.906-.766-1.945-2.282-3.094a24.095 24.095 0 0 0 2.14-3.648v-1.203h-7.827zm11.329 5.351v1.688h9.047c-1.25 5.898-4.414 10.125-9.531 12.648l1.086 1.438c5.109-2.665 8.421-6.915 9.914-12.743 1.796 5.422 5.109 9.594 9.93 12.57l1.085-1.39c-4.922-2.93-8.234-7.101-9.914-12.523h9.453v-1.688h-9.96c.195-1.484.312-3.047.312-4.726v-1.555h-1.774v1.937a35.079 35.079 0 0 1-.312 4.344h-9.336zm38.305 6.344c1.148 3.281 3.047 6 5.687 8.133l1.227-1.414c-2.547-1.805-4.39-4.204-5.524-7.227a21.948 21.948 0 0 0 4.133-2.133l-1.18-1.18a22.661 22.661 0 0 1-6.359 2.907 11.51 11.51 0 0 0-2.016-2.813 39.316 39.316 0 0 0 1.97-1.265h5.491v-1.61H979.82v1.61h6.36c-.766.43-1.61.812-2.47 1.195-1.85.797-3.937 1.438-6.241 1.945l.89 1.414c2.688-.765 4.868-1.53 6.524-2.304.172-.094.336-.164.531-.258.336.383.672.789.961 1.242-2.188 1.68-5.305 3.024-9.336 4.086l.86 1.484c3.89-1.101 6.96-2.547 9.218-4.32.29.578.508 1.18.696 1.797-2.618 2.164-6.313 3.914-11.063 5.305l.86 1.492c4.343-1.32 7.85-3.024 10.538-5.14.047.39.07.773.094 1.202 0 1.493-.21 2.5-.648 3.024-.36.406-1.242.625-2.664.648h-1.149l.578 1.516h.813c2.062 0 3.406-.438 3.984-1.25.508-.719.766-2.04.766-3.938a12.73 12.73 0 0 0-.617-3.742c.476-.125.984-.266 1.46-.406zm-3.477-12.82l-1.758.312c.29.578.578 1.25.844 1.969h-9.508v4.172h1.703v-2.563h16.852v2.563h1.703v-4.172h-9.023a26.999 26.999 0 0 0-.813-2.281zm20.156 2.132h-6.484v18.172h1.68v-2.039h3.148v1.461h1.656V250zm-4.804 14.5v-12.867h3.148V264.5h-3.148zm8.523-11.64h10.133v-1.68h-9.242c.43-.89.812-1.852 1.195-2.86l-1.602-.359c-1.007 2.766-2.304 4.992-3.89 6.72l1.125 1.32a21.9 21.9 0 0 0 2.281-3.141zm-1.125 3.625v1.633h6.86a65.689 65.689 0 0 0-4.055 4.414c-1.274 1.515-2.11 2.64-2.516 3.359-.437.625-.648 1.203-.648 1.703 0 1.399.86 2.094 2.64 2.094h5.688c1.172-.024 2.039-.29 2.617-.82.57-.524.984-2.11 1.172-4.75l-1.61-.579c-.14 2.235-.382 3.555-.695 3.961-.336.383-.812.602-1.484.602h-5.281c-.797 0-1.18-.29-1.18-.82 0-.282.195-.743.578-1.344.406-.672 1.125-1.578 2.188-2.781 1.195-1.414 2.875-3.118 4.992-5.133v-1.54h-9.266zm17.227 3.476v10.086h1.679V258.14a18.159 18.159 0 0 0 2.117-3.336l-1.492-.672c-1.148 2.399-3.023 4.563-5.562 6.453l.5 1.657a25.222 25.222 0 0 0 2.758-2.282zm2.211-11.953c-1.149 2.211-3 4.18-5.547 5.906l.508 1.68c3-2.016 5.156-4.32 6.476-6.914l-1.437-.672zm3.14.867v7.657h11.36v-7.657h-11.36zm9.703 6.266h-8.047v-1.773h8.047v1.773zm-8.047-3.094v-1.781h8.047v1.781h-8.047zm-2.711 6.188v1.515h9.243v2.04h-10.102v1.507h10.102v4.203c0 .578-.336.891-.985.891a26.81 26.81 0 0 1-2.422-.125l.36 1.633h2.664c1.39 0 2.086-.672 2.086-1.992v-4.61h3.461v-1.508h-3.461v-2.039h2.906v-1.515h-13.852zm2.524 5.789l-1.25.883c1.25 1.25 2.281 2.453 3.07 3.554l1.321-.914c-.719-1.031-1.774-2.203-3.141-3.523zm14.641-15.031v1.609h9.406v2.086h-7.344v9.508h7.031c-.242 1.25-.672 2.28-1.25 3.093a20.797 20.797 0 0 1-3.718-2.445l-1.321.914a23.13 23.13 0 0 0 3.867 2.664c-1.539 1.102-3.984 1.774-7.32 2.04l.742 1.585c3.813-.437 6.578-1.344 8.258-2.789 3.578 1.633 7.774 2.57 12.602 2.766l.429-1.656c-4.609-.149-8.593-.938-11.953-2.352.672-.96 1.133-2.234 1.414-3.82h7.735v-9.508h-7.446V250.6h9.438v-1.61h-20.57zm16.875 11.695h-5.813l.07-1.711v-.836h5.743v2.547zm-7.54 0h-5.57v-2.547h5.641v.836a20.4 20.4 0 0 1-.071 1.71zm-5.57-3.985v-2.523h5.641v2.523h-5.641zm7.367-2.523h5.743v2.523h-5.743v-2.523zm16.25-6.406a97.96 97.96 0 0 1-.89 4.844h-2.907v1.656h2.547c-.578 2.453-1.226 4.726-1.968 6.844 1.343.984 2.593 1.921 3.695 2.804-1.125 1.875-2.586 3.461-4.414 4.781l1.18 1.438a18.244 18.244 0 0 0 4.578-5.11c1.203 1.008 2.234 1.915 3.054 2.782l1.172-1.367a40.062 40.062 0 0 0-3.406-2.93c1.344-2.805 2.133-6.117 2.352-9.914v-.984h-4.157c.289-1.438.578-3.024.867-4.704l-1.703-.14zm1.25 14.687c-.797-.578-1.656-1.203-2.57-1.851.625-1.68 1.227-3.79 1.797-6.336h2.812c-.218 3.07-.89 5.812-2.039 8.187zm4.555-4.343v1.68h5.43v7.148c0 .82-.289 1.226-.844 1.226-1.148 0-2.234-.023-3.211-.023l.453 1.633h3.453c1.25 0 1.899-.766 1.899-2.305v-7.68h4.898v-1.68h-4.898v-2.5c1.437-1.437 2.758-3 3.914-4.656v-1.68h-10.399v1.68h8.43c-1.18 1.633-2.398 3-3.695 4.133v3.024h-5.43zm17.547 6.671c-.484 0-.844.118-1.125.407-.289.265-.438.625-.438 1.078 0 .414.149.773.438 1.062.281.282.617.43 1.031.43a1.3 1.3 0 0 0 .524-.094c0 .57-.164 1.102-.524 1.602-.39.484-.89.844-1.515 1.062v1.172c1.007-.265 1.851-.789 2.476-1.562.617-.813.93-1.75.93-2.805 0-.695-.164-1.25-.477-1.68a1.578 1.578 0 0 0-1.32-.672zm25.32-10.609h5.758v5.547h-7.055v1.68h7.055v6.093h-9.961v1.727h21.149v-1.727h-9.43v-6.093h7.414v-1.68h-7.414v-5.547h7.891v-1.68h-7.891v-4.273h-1.758v4.273h-5.133c.36-1.078.672-2.234.938-3.484l-1.758-.313c-.789 4.016-2.328 7.204-4.578 9.555l1.101 1.422c1.485-1.492 2.711-3.312 3.672-5.5zm25.61.836v1.656h6.859v3.727H1152v9.672h1.703v-1.32h9v1.273h1.703v-9.625h-5.398v-3.727h6.914v-1.656h-6.914v-3.984c2.18-.305 4.101-.766 5.781-1.368l-.836-1.484c-3.461 1.172-7.828 1.773-13.062 1.773l.531 1.563a62.07 62.07 0 0 0 5.828-.266v3.766h-6.859zm3.312 12.102v-5.086h9v5.086h-9zm-7.656-18.75l-1.18 1.132c1.727 1.149 3.094 2.211 4.078 3.22l1.18-1.18c-1.102-1.055-2.469-2.11-4.078-3.172zm-.555 5.742l-1.203 1.172c1.758 1.25 3.125 2.453 4.133 3.578l1.195-1.203c-1.101-1.196-2.492-2.375-4.125-3.547zm2.836 6.383c-1.008 2.906-2.234 5.734-3.625 8.523l1.727.742c1.25-2.687 2.398-5.594 3.453-8.664l-1.555-.601zm20.399-11.5v1.609h9.406v2.086h-7.344v9.508h7.031c-.242 1.25-.672 2.28-1.25 3.093a20.797 20.797 0 0 1-3.718-2.445l-1.321.914a23.13 23.13 0 0 0 3.867 2.664c-1.539 1.102-3.984 1.774-7.32 2.04l.742 1.585c3.813-.437 6.578-1.344 8.258-2.789 3.578 1.633 7.774 2.57 12.602 2.766l.429-1.656c-4.609-.149-8.593-.938-11.953-2.352.672-.96 1.133-2.234 1.414-3.82h7.735v-9.508h-7.446V250.6h9.438v-1.61h-20.57zm16.875 11.695h-5.813l.07-1.711v-.836h5.743v2.547zm-7.54 0h-5.57v-2.547h5.641v.836a20.4 20.4 0 0 1-.071 1.71zm-5.57-3.985v-2.523h5.641v2.523h-5.641zm7.367-2.523h5.743v2.523h-5.743v-2.523zm16.25-6.406a97.96 97.96 0 0 1-.89 4.844h-2.907v1.656h2.547c-.578 2.453-1.226 4.726-1.968 6.844 1.343.984 2.593 1.921 3.695 2.804-1.125 1.875-2.586 3.461-4.414 4.781l1.18 1.438a18.244 18.244 0 0 0 4.578-5.11c1.203 1.008 2.234 1.915 3.054 2.782l1.172-1.367a40.062 40.062 0 0 0-3.406-2.93c1.344-2.805 2.133-6.117 2.352-9.914v-.984h-4.157c.289-1.438.578-3.024.867-4.704l-1.703-.14zm1.25 14.687c-.797-.578-1.656-1.203-2.57-1.851.625-1.68 1.227-3.79 1.797-6.336h2.812c-.218 3.07-.89 5.812-2.039 8.187zm4.555-4.343v1.68h5.43v7.148c0 .82-.289 1.226-.844 1.226-1.148 0-2.234-.023-3.211-.023l.453 1.633h3.453c1.25 0 1.899-.766 1.899-2.305v-7.68h4.898v-1.68h-4.898v-2.5c1.437-1.437 2.758-3 3.914-4.656v-1.68h-10.399v1.68h8.43c-1.18 1.633-2.398 3-3.695 4.133v3.024h-5.43zM1228.648 247.554c-.601 0-1.085.172-1.445.531-.383.336-.578.79-.578 1.367 0 .524.172.985.531 1.344.36.36.79.547 1.32.547.266 0 .454-.047.602-.094 0 .578-.195 1.133-.625 1.703a3.964 3.964 0 0 1-1.656 1.157v1.586c1.25-.368 2.258-1.016 3-1.946a5.433 5.433 0 0 0 1.101-3.336c0-.843-.21-1.539-.625-2.07-.43-.523-.976-.789-1.625-.789zm-5.835 0c-.602 0-1.079.172-1.461.531-.391.336-.555.79-.555 1.367 0 .524.164.985.555 1.344.335.36.765.547 1.289.547.265 0 .46-.047.601-.094 0 .578-.21 1.133-.648 1.703a3.75 3.75 0 0 1-1.633 1.157v1.586c1.25-.368 2.258-1.016 3-1.946a5.39 5.39 0 0 0 1.11-3.336c0-.843-.22-1.539-.65-2.07-.429-.523-.96-.789-1.609-.789zM1251.695 252.187h-3.867c.485-1.203.844-2.524 1.125-3.938l-1.726-.242a21.37 21.37 0 0 1-1.032 4.18h-2.234v17.062h1.68v-2.062h4.375v1.367h1.68v-16.367zm-6.054 13.39v-5.257h4.375v5.257h-4.375zm0-6.812v-4.945h4.375v4.945h-4.375zm10.226-1.008l-1.39.86c1.656 1.968 2.976 3.75 3.96 5.328l1.368-.961c-.914-1.485-2.211-3.235-3.938-5.227zm8.235-5.547h-7.657c.43-1.25.766-2.593 1.055-4.008l-1.703-.218c-.625 3.414-1.75 6.289-3.43 8.64l1.031 1.368c.938-1.22 1.727-2.586 2.399-4.102h6.601c-.046 6.914-.148 11.063-.289 12.406-.195 1.227-.836 1.852-1.968 1.852-.743 0-1.61-.024-2.618-.07l.407 1.585c1.156.047 1.968.094 2.453.094 2.015 0 3.117-.937 3.36-2.758.241-1.875.359-6.82.359-14.789zm9.789-3.937c-1.532 4.586-3.79 8.234-6.79 10.969l1.344 1.18c2.93-2.641 5.258-6.485 7.032-11.524l-1.586-.625zm8.187 12.719l-1.562.53c1.007 1.438 1.968 3.024 2.906 4.75-3.43.555-7.102.962-11.016 1.204 2.063-2.594 4.125-6.172 6.188-10.727l-1.68-.578c-2.898 6.578-5.305 10.367-7.219 11.375l.313 1.68c5.226-.336 9.96-.813 14.18-1.484.359.718.718 1.484 1.085 2.304l1.602-.719c-1.344-2.953-2.922-5.742-4.797-8.335zm-.36-12.883l-1.468.812c1.398 4.703 3.89 8.57 7.469 11.547l1.226-1.414c-3.437-2.836-5.836-6.484-7.226-10.945zm11.829 10.172v7.398h10.586v-7.398h-10.586zm8.93 5.859h-7.25v-4.297h7.25v4.297zm5.835 5.734c1.633 0 2.446-.859 2.446-2.57v-18.266h-18.047v1.688h16.32v16.101c0 .961-.383 1.438-1.11 1.438l-3.359-.047.438 1.656h3.313zm-16.562-16.101v1.554h14.758v-1.554h-14.758zm30.453-3.29v1.657h6.29v2.281h-5.47v6.79h5.375c-.148 1.679-.484 3.046-.984 4.1a17.347 17.347 0 0 1-3.46-3.28l-1.313.906a18.004 18.004 0 0 0 3.789 3.648c-1.102 1.055-2.907 1.735-5.352 1.993l.742 1.585c2.782-.406 4.828-1.273 6.118-2.593 2.546 1.492 5.5 2.328 8.859 2.547l.43-1.657c-3.141-.172-5.922-.914-8.329-2.234.649-1.195 1.063-2.852 1.25-5.016h5.711v-6.789h-5.617v-2.281h6.602v-1.656h-6.602v-2.453h-1.75v2.453h-6.289zm12.024 9.165h-4.008c0-.188.023-.383.023-.57v-3.125h3.985v3.695zm-5.758 0h-3.813v-3.696h3.836v3.125c0 .188-.023.383-.023.57zm-10.657-2.946v13.391h1.727v-16.156a31.495 31.495 0 0 0 2.234-5.305l-1.632-.742c-1.102 3.79-2.907 7.156-5.399 10.078l.57 1.828a30.261 30.261 0 0 0 2.5-3.094zm30.961 1.579h-7.25v9.554h1.657v-1.703h3.937v1.274h1.656v-9.125zm-5.593 6.265v-4.68h3.937v4.68h-3.937zm6.195-16.562c-2.398 2.742-5.836 5.14-10.32 7.203l.93 1.46c4.273-1.968 7.609-4.343 10.038-7.1 2.329 2.78 5.641 5.163 9.961 7.1l.961-1.46c-4.32-1.899-7.757-4.297-10.273-7.203h-1.297zm-4.367 6.125v1.586h9.984v-1.586h-9.984zm11.398 13.39c1.438 0 2.188-.742 2.188-2.187v-7.055h-7.563v11.977h1.703v-10.39h4.204v5.085c0 .672-.368 1.031-1.063 1.031l-1.891-.07.43 1.61h1.992zm11.594-3.265c-.867 0-1.609.289-2.211.867-.625.578-.914 1.297-.914 2.156 0 .867.289 1.586.914 2.164.602.555 1.344.836 2.211.836.859 0 1.578-.281 2.203-.86a2.868 2.868 0 0 0 .914-2.14c0-.86-.312-1.578-.914-2.156a3.113 3.113 0 0 0-2.203-.867zm0 1.25c.477 0 .906.172 1.266.531.359.336.554.742.554 1.242 0 .485-.195.89-.554 1.227-.36.336-.789.531-1.266.531-.508 0-.938-.195-1.273-.531a1.55 1.55 0 0 1-.555-1.227c0-.5.172-.906.555-1.242.335-.36.765-.531 1.273-.531z" fill="#111925" fill-opacity=".85"/></g></g><ellipse cx="974" cy="382" rx="400" ry="27" fill="#F7F8F9" filter="url(#d)"/><g style="mix-blend-mode:passthrough"><g style="mix-blend-mode:passthrough"><rect x="447" y="62" width="24" height="5" rx="2.5"/></g><g style="mix-blend-mode:passthrough"><path d="M1745.085 41.082h6.054a.417.417 0 0 1 .36.626l-3.027 5.223a.417.417 0 0 1-.72 0l-3.028-5.223a.417.417 0 0 1 .36-.626z" fill-rule="evenodd" fill="#FFF"/></g><rect x="518" y="62" width="24" height="5" rx="2.5" fill="#FFD100"/><g style="mix-blend-mode:passthrough"><path d="M893.583 35.24c-1.89 2.109-4.24 3.885-7.057 5.296l.61 1.104c2.843-1.505 5.135-3.297 6.864-5.38 1.885 2.208 4.14 4 6.797 5.365l.625-1.105c-2.64-1.28-4.974-3.041-7.005-5.28h-.834zm.287 4.223v8.64h-3.073v-6.338h-1.136v6.339h-2.416v1.12h13.312v-1.12h-5.52v-3.938h4.37v-1.104h-4.37v-3.599h-1.167zm13.807-4.114v12.724h-4.765v1.12h14.176v-1.12h-4.801V35.349h-1.167v12.724h-2.276V35.349h-1.167zm7.953 2.911c-.687 2.932-1.505 5.344-2.432 7.234l1.042.37c.973-2.099 1.776-4.531 2.416-7.312l-1.026-.292zm-11.343-.031l-.98.323a58.979 58.979 0 0 1 2.162 7.39l1.057-.27c-.656-2.803-1.406-5.282-2.24-7.443zm23.775-2.959v4.766h-3.567v1.135h3.567v7.01h-4.13v1.136h9.35v-1.135h-4.037v-7.01h3.65v-1.136h-3.65V35.27h-1.183zm-6.911 7.907v6.656h1.136v-6.77c.64.447 1.28 1.01 1.937 1.681l.64-.994a14.783 14.783 0 0 0-2.577-1.87c.895-1.156 1.567-2.308 1.984-3.459v-.974h-2.016l.333-.13c-.208-.672-.494-1.39-.848-2.192l-1.105.307c.339.635.625 1.307.88 2.015h-2.463v1.105h4.052c-.74 1.744-2.224 3.536-4.432 5.359l.349 1.214a33.43 33.43 0 0 0 2.13-1.948zm20.432-7.99c-1.89 2.162-4.24 3.953-7.057 5.396l.61 1.104c2.843-1.536 5.135-3.36 6.864-5.474a22.422 22.422 0 0 0 6.797 5.458l.625-1.104c-2.64-1.312-4.974-3.104-7.005-5.38h-.834zm-3.49 4.917v1.088h7.855v-1.088h-7.854zm-2.51 3.213v1.12h4.016c-.688 1.313-1.552 2.547-2.578 3.73-.125.13-.318.223-.61.301l.323 1.01c3.823-.223 6.974-.54 9.474-.942.318.448.605.88.88 1.313l.959-.672c-.787-1.203-1.906-2.61-3.36-4.245l-.895.578a41.016 41.016 0 0 1 1.791 2.177c-2.37.318-4.849.542-7.458.703a16.58 16.58 0 0 0 2.787-3.953h7.536v-1.12h-12.865zm15.97-7.088v.958h5.869v1.042h-5.042v.942h5.042v1.073h-6.323v.995h13.797v-.995h-6.323v-1.073h4.995v-.942h-4.995v-1.042h5.807v-.958h-5.807v-1.005h-1.151v1.005h-5.87zm11.359 5.953h-9.875v4.911h1.104v-3.885h7.666v3.76h1.105v-4.786zm-4.047 4.27l-.625.949c1.968.62 3.87 1.468 5.729 2.557l.656-.99c-1.73-.979-3.651-1.807-5.76-2.515zm-1.412-2.4c-.208 1.312-.75 2.338-1.646 3.073-.911.724-2.385 1.265-4.416 1.65l.463 1.09c2.318-.48 3.938-1.136 4.85-1.97 1.036-.927 1.66-2.177 1.869-3.729l-1.12-.114zm22.594-8.334c-2.24.641-5.057.974-8.448.974l.364 1.089c1.22 0 2.37-.047 3.459-.125v4.38h-4.656v1.12h4.656v5.026h-3.854v1.135h8.895v-1.135h-3.89v-5.026h4.687v-1.12h-4.687v-4.495c1.536-.177 2.88-.463 4.031-.849l-.557-.974zm-9.73-.494a17.042 17.042 0 0 1-3.76 6.416l.37 1.23a19.182 19.182 0 0 0 1.708-1.954v8.98h1.157V39.207a18.778 18.778 0 0 0 1.599-3.49l-1.073-.494z" fill="#000" fill-opacity=".9"/></g><g style="mix-blend-mode:passthrough"><path d="M1061.531 36.807v1.057h5.875v1.516h-4.979v1.026h4.98v1.552h-6.402v1.057h13.985v-1.057h-6.401v-1.552h5.026V39.38h-5.026v-1.516h5.875v-1.057h-3.553c.271-.495.48-1.01.641-1.552l-1.234-.162a7.498 7.498 0 0 1-.61 1.714h-3.343c-.24-.625-.48-1.188-.735-1.682l-1.219.192c.292.448.547.943.771 1.49h-3.65zm5.985 6.625a6.74 6.74 0 0 1-.318 1.297h-5.823v1.083h5.297c-.276.432-.61.818-1.026 1.156-1.026.813-2.688 1.438-5.01 1.87l.484 1.12c2.604-.542 4.432-1.281 5.469-2.224a6.507 6.507 0 0 0 1.359-1.76c1.057 1.921 3.349 3.234 6.864 3.937l.61-1.089c-3.151-.526-5.281-1.536-6.386-3.01h5.605V44.73h-6.193c.11-.354.193-.755.255-1.172l-1.187-.125zm12.338-3.714v1.042h4.48c-1.167 1.76-2.75 3.167-4.75 4.193l.603 1.02a13.693 13.693 0 0 0 5.042-5.057v4.401c0 .48-.224.719-.64.719a21.37 21.37 0 0 1-1.678-.078l.24 1.073h1.823c.896 0 1.36-.48 1.36-1.422V40.76h1.984v-1.042h-1.985v-1.953h-1.104v1.953h-5.375zm10.625-3.823h-12.963V49.88h1.12v-.719h10.723v.719h1.12V35.895zm-11.844 12.209V36.947h10.724v11.157h-10.724zm18.625-12.755c-1.02 3.057-2.526 5.49-4.526 7.312l.896.786c1.953-1.76 3.505-4.322 4.688-7.682l-1.058-.416zm5.459 8.479l-1.042.354a32.678 32.678 0 0 1 1.938 3.166c-2.287.37-4.735.641-7.344.803 1.375-1.73 2.75-4.115 4.125-7.151l-1.12-.386c-1.932 4.386-3.536 6.912-4.813 7.584l.209 1.12c3.484-.225 6.64-.542 9.453-.99.24.479.48.99.724 1.536l1.068-.479c-.896-1.969-1.948-3.828-3.198-5.557zm-.24-8.589l-.979.542c.932 3.135 2.594 5.713 4.98 7.698l.817-.943c-2.292-1.89-3.89-4.323-4.818-7.297zm18.625 7.854h-10.083v5.136h-2.094v1.104h14.162v-1.104h-1.985v-5.136zm-8.979 5.136v-4.047h1.89v4.047h-1.89zm2.943 0v-4.047h1.953v4.047h-1.953zm3.01 0v-4.047h1.906v4.047h-1.906zm-8.818-10.224v1.12h13.49v-1.12h-3.839a14.054 14.054 0 0 0 1.553-2.48l-1.12-.385a16.939 16.939 0 0 1-1.698 2.865h-4.078l.75-.542c-.464-.656-1.136-1.427-2.016-2.323l-.943.594c.797.818 1.454 1.568 1.97 2.27h-4.069zm8.98 1.713l-.594.88c1.667.766 3.312 1.823 4.911 3.152l.64-1.006a23.717 23.717 0 0 0-4.957-3.026zm-4.516-.099c-1.292 1.266-2.943 2.276-4.958 3.042l.494 1.073c2.084-.865 3.823-1.969 5.204-3.281l-.74-.834z" fill="#000" fill-opacity=".9"/></g><g style="mix-blend-mode:passthrough"><path d="M1131.085 39h6.054a.417.417 0 0 1 .36.626l-3.027 5.223a.417.417 0 0 1-.72 0l-3.028-5.223a.417.417 0 0 1 .36-.626z" fill-rule="evenodd" fill="#000" fill-opacity=".9"/></g><path d="M1204.589 48.687c.927 0 1.411-.48 1.411-1.443v-4.718c.589-.287 1.167-.61 1.74-.927v-1.183c-.573.35-1.151.672-1.74.959v-3.136h1.823v-1.104H1206v-2.927h-1.156v2.927h-1.948v1.104h1.948v3.646c-.735.307-1.5.563-2.271.77l.286 1.152c.672-.224 1.344-.48 1.985-.755v3.906c0 .448-.224.672-.657.672-.38 0-.796-.032-1.213-.063l.24 1.12h1.375zm3.76-7.651v1.12h.964c.411 1.396 1.244 2.64 2.479 3.76-1.172.834-2.594 1.506-4.292 2.037l.625.974c1.807-.563 3.344-1.313 4.594-2.24 1.104.833 2.479 1.568 4.13 2.208l.62-.994c-1.552-.542-2.865-1.183-3.933-1.917 1.151-1.073 1.964-2.37 2.464-3.875v-1.073h-7.651zm2.016 1.12h4.5c-.5 1.187-1.25 2.224-2.26 3.125-1.09-.932-1.824-1.969-2.24-3.125zm-.782-7.328v2.13c0 1.088-.625 1.922-1.843 2.51l.77.88c1.474-.828 2.209-2 2.209-3.505v-.927h3.104v2.61c0 .927.495 1.406 1.52 1.406h1.631v-1.068h-1.344c-.448 0-.672-.208-.672-.594v-3.442h-5.375zm10.302-.302l-.562.864c.88.287 1.745.672 2.61 1.182l.609-.927a14.227 14.227 0 0 0-2.657-1.12zm5.151-.386c-.38 1.136-1.088 2.1-2.14 2.865l.672.896a9.291 9.291 0 0 0 1.583-1.584h2.047c-.193.896-.594 1.6-1.167 2.13-.703.605-1.843 1.073-3.411 1.407l.432 1.026c1.792-.417 3.073-1.01 3.86-1.745a6.42 6.42 0 0 0 .64-.818c.99 1.282 2.656 2.146 4.99 2.625l.416-1.026c-2.463-.463-4.114-1.312-4.942-2.541.125-.323.224-.672.286-1.058h2.719a9.21 9.21 0 0 1-.688 1.683l1.104.333c.323-.766.579-1.552.771-2.333v-.688h-6.448c.157-.323.287-.677.412-1.026l-1.136-.146zm6.084 7.172h-10.292v4.88h1.151V42.38h7.99v3.682h1.15v-4.75zm-5.604 1.677c-.125 1.651-.558 2.818-1.276 3.505-.818.735-2.5 1.167-5.042 1.313l.448 1.026c2.88-.224 4.734-.786 5.568-1.651.75-.703 1.234-2.063 1.458-4.094l-1.156-.099zm-3.407-5.453c-.833.797-1.854 1.552-3.072 2.24l.77.895c1.183-.74 2.172-1.52 2.974-2.354l-.672-.781zm4.928 8.48l-.59.88a31.305 31.305 0 0 1 5.647 2.046l.625-.958c-1.714-.77-3.6-1.427-5.683-1.969zm9.296-10.162v1.073h4.386v1.9h-5.808v1.09h7.282a27.475 27.475 0 0 1-7.505 2.947l.479 1.068a67.27 67.27 0 0 0 2.687-.927v5.89h1.167v-.718h6.927v.718h1.156v-7.203h-6.052a26.027 26.027 0 0 0 2.516-1.312c.24-.156.479-.302.718-.464h4.88v-1.088h-3.421a22.098 22.098 0 0 0 3.02-2.99l-.88-.64a21.356 21.356 0 0 1-3.968 3.63h-2.016v-1.901h3.776v-1.073h-3.776v-1.698h-1.182v1.698h-4.386zm2.688 9.552h6.927v1.745h-6.927v-1.745zm6.927-1.026h-6.927v-1.677h6.927v1.677zm9.01-10.125l-1.057.51a18.94 18.94 0 0 1 1.839 2.735l1.041-.526a24.934 24.934 0 0 0-1.823-2.72zm6.016-.146c-.48 1.344-1.005 2.48-1.615 3.406h-7.312v1.125h5.36v.75c-.016.781-.094 1.521-.24 2.224h-6.032v1.12h5.745a7.503 7.503 0 0 1-.917 1.906c-.958 1.276-2.671 2.318-5.12 3.104l.626 1.006c2.463-.782 4.24-1.886 5.328-3.297.515-.688.911-1.485 1.219-2.401.864 2.432 3.036 4.37 6.557 5.797l.672-1.073c-3.36-1.204-5.422-2.88-6.208-5.042h5.828v-1.12h-6.5c.13-.672.192-1.422.224-2.224v-.75h5.343v-1.125h-3.291c.572-.911 1.052-1.948 1.437-3.104l-1.104-.302zm12.432 14.708c.896 0 1.36-.468 1.36-1.364v-4.287c1.375-.114 2.609-.224 3.713-.354.386.563.735 1.104 1.042 1.651l.927-.656c-.703-1.136-1.714-2.464-3.026-4l-.865.526c.433.516.85 1.042 1.25 1.552-1.86.224-4.099.401-6.703.547 2.016-1.057 4.365-2.771 7.068-5.156l-1.052-.526a58.084 58.084 0 0 1-2.224 1.906c-1.313.11-2.61.208-3.89.27 1.025-.671 2.03-1.567 3.025-2.718 2.271-.177 4.224-.469 5.886-.849l-.558-.98c-3.041.673-6.864 1.011-11.458 1.011l.339 1.005c1.536 0 2.974-.03 4.333-.093-1.089 1.182-2.031 1.968-2.833 2.37-.24.093-.495.171-.782.208l.24 1.02c1.599-.093 3.104-.192 4.495-.301-1.63 1.213-3.104 2.109-4.417 2.687-.302.094-.64.177-1.005.208l.318 1.026a275.03 275.03 0 0 0 5.01-.276v3.922c0 .386-.208.594-.594.594-.526 0-1.073-.031-1.646-.083l.256 1.14h1.791zm3.552-4.677l-.765.74c1.692 1.281 3.02 2.479 4 3.599l.812-.818c-1.088-1.182-2.432-2.349-4.047-3.52zm-6.099.115c-1.052 1.213-2.364 2.286-3.932 3.213l.719.933c1.599-.98 2.943-2.115 4.031-3.428l-.818-.718zM1356.573 36.572h-5.23v12.053h1.105v-1.073h3.005v1.073h1.12V36.572zm-4.125 9.875v-8.77h3.005v8.77h-3.005zm-6.995-12.208v3.23h-2.557v1.12h2.557c-.047 4.385-1.005 7.588-2.864 9.588l.849.75c2.046-2.177 3.104-5.615 3.166-10.339h2.13c-.03 4.292-.099 6.865-.192 7.698-.13.911-.61 1.375-1.422 1.375-.386 0-.834-.031-1.344-.063l.286 1.058c.573.031.974.062 1.214.062 1.411 0 2.193-.672 2.354-1.984.162-1.182.24-4.27.24-9.266h-3.266V34.24h-1.15zm19.839 3.662c-1.021 4.255-3.245 7.52-6.672 9.76l.687.98c3.365-2.178 5.573-5.313 6.625-9.397.084.193.162.417.26.672 1.647 4.224 3.756 7.14 6.35 8.709l.718-.933c-2.526-1.583-4.526-4.286-6.03-8.11-.99-2.593-2.194-4.4-3.615-5.395l-.959.61c1.021.739 1.901 1.76 2.636 3.104zm16.88 3.729c-.896.302-1.87.593-2.912.864v-2.88h3.938c.13 1.214.302 2.271.526 3.183.161.625.339 1.218.531 1.76a11.874 11.874 0 0 1-4.099 2.531l.625.99a12.99 12.99 0 0 0 3.922-2.401c.255.578.557 1.088.88 1.52.735.964 1.422 1.443 2.078 1.443.74 0 1.297-1.135 1.683-3.411l-1.01-.526c-.256 1.791-.527 2.687-.85 2.703-.302 0-.718-.401-1.229-1.167-.255-.37-.479-.833-.703-1.375 1.005-1.073 1.87-2.354 2.604-3.86l-.99-.525a16.012 16.012 0 0 1-2.03 3.166 13.829 13.829 0 0 1-.323-1.135c-.193-.786-.334-1.745-.448-2.896h4.849V38.51h-4.943c-.1-1.25-.146-2.672-.162-4.286h-1.15c0 1.567.046 2.99.145 4.286h-3.844v-2.401a34.848 34.848 0 0 0 2.37-.719l-.385-1.088c-1.76.687-3.776 1.15-6.047 1.406l.24 1.104c.911-.125 1.791-.27 2.64-.448v2.146h-3.297v1.104h3.297v3.151a70.75 70.75 0 0 1-3.312.61l.161 1.166a59.287 59.287 0 0 0 3.151-.61v3.043c0 .432-.224.656-.672.656-.526 0-1.073-.032-1.63-.078l.24 1.104h1.776c.974 0 1.468-.464 1.468-1.396v-3.599a48.739 48.739 0 0 0 2.912-.864V41.63zm3.698-7.235l-.766.74c1.214.849 2.156 1.646 2.865 2.38l.828-.828c-.797-.77-1.776-1.52-2.927-2.292zm17.203 14.339c1.068 0 1.614-.542 1.614-1.615V35.23h-5.025v1.104h3.89v10.464c0 .593-.24.895-.724.895l-1.568-.031.292 1.073h1.52zm-5.682-14.547l-.88.563c.718.927 1.296 1.791 1.713 2.578l.911-.64c-.416-.725-.994-1.553-1.744-2.5zm-3.026-.094a17.979 17.979 0 0 1-3.823 6.688l.37 1.172a20.61 20.61 0 0 0 1.723-2.037v8.98h1.157V38.17a19.125 19.125 0 0 0 1.614-3.599l-1.041-.479zm1.395 2.818v11.938h1.12V36.91h-1.12z" fill="#000" fill-opacity=".9"/><g style="mix-blend-mode:passthrough"><path d="M989.085 39h6.054a.417.417 0 0 1 .36.626l-3.027 5.223a.417.417 0 0 1-.72 0l-3.028-5.223a.417.417 0 0 1 .36-.626z" fill-rule="evenodd" fill="#000" fill-opacity=".9"/></g></g><g style="mix-blend-mode:passthrough"><path d="M906.242 365.07v2.226h8.977v18.82h2.281v-13.25c2.016 1.032 4.54 2.547 7.563 4.516l1.367-2.07c-3.024-1.82-6-3.453-8.93-4.867v-3.149h10.227v-2.226h-21.485zm25.367.648v2.063h4.493v1.726h-5.735v2.086h13.32c.141 2.063.407 3.867.743 5.352.242 1.203.554 2.304.89 3.312-1.18 1.781-2.593 3.125-4.273 4.031l1.219 1.829c1.492-.82 2.836-1.946 4.039-3.43.164.336.36.672.57.984 1.008 1.438 1.922 2.156 2.79 2.156 1.077 0 1.89-1.609 2.444-4.796l-1.945-1.032c-.266 2.328-.523 3.5-.766 3.5-.312 0-.742-.578-1.32-1.68a7.771 7.771 0 0 1-.476-1.054c1.171-2.016 2.132-4.492 2.875-7.422l-2.04-.906c-.453 1.945-1.03 3.695-1.726 5.281-.094-.414-.172-.844-.266-1.273-.242-1.25-.43-2.86-.578-4.852h5.742v-2.086h-5.859a101.87 101.87 0 0 1-.14-5.64h-2.212c0 2.015.047 3.914.141 5.64h-5.226v-1.726h4.148v-2.063h-4.149v-1.828h-2.21v1.828h-4.493zm16.446-1.61l-1.727 1.102c1.195 1.344 2.133 2.547 2.805 3.625l1.703-1.203c-.649-1.008-1.586-2.18-2.781-3.523zm-5.594 16.821a95.901 95.901 0 0 1-3.555.383v-1.531h3.438v-1.899h-3.438v-1.586h-2.226v1.586h-2.328c.476-.742.96-1.562 1.39-2.469h6.836v-2.015h-6c.149-.39.29-.774.438-1.203l-2.164-.407c-.188.547-.36 1.079-.555 1.61h-3.211v2.015h2.328c-.508 1.008-1.031 1.844-1.61 2.54l.43 1.828h4.446v1.75c-1.735.148-3.532.265-5.453.359l.265 2.117c1.797-.148 3.531-.289 5.188-.437v2.476h2.226v-2.71c1.227-.15 2.407-.29 3.555-.438v-1.969zm12.766-14.71v2.062h8.617v1.828h-7.274v1.969h7.274v1.843h-9.407v2.117h21.118v-2.117h-9.407v-1.844h7.344v-1.968h-7.344v-1.828h8.618v-2.063h-4.993c.36-.672.649-1.367.868-2.11l-2.453-.312a11.84 11.84 0 0 1-.836 2.422h-4.633a24.785 24.785 0 0 0-.961-2.351l-2.399.382c.383.602.72 1.25 1.032 1.97h-5.164zm8.789 10.273a14.596 14.596 0 0 1-.383 1.585h-8.649v2.157h7.47c-.337.437-.72.82-1.204 1.203-1.508 1.148-3.984 2.015-7.39 2.617l.937 2.227c3.984-.813 6.742-1.914 8.328-3.313a9.13 9.13 0 0 0 1.82-2.25c1.61 2.664 4.97 4.484 10.11 5.492l1.203-2.156c-4.469-.672-7.516-1.945-9.149-3.82h7.922v-2.156h-9c.117-.438.211-.891.29-1.344l-2.305-.242zm18.695-5.907v2.04H989c-1.68 2.35-3.914 4.25-6.727 5.663l1.227 2.016c2.93-1.726 5.281-4.101 7.078-7.078v5.687c0 .649-.281.985-.812.985-.79 0-1.633-.047-2.5-.14l.484 2.109h2.758c1.492 0 2.258-.79 2.258-2.375v-6.868h2.78v-2.039h-2.78v-2.687h-2.188v2.687h-7.867zm16.226-5.734h-19.875v21.289h2.18v-.914h15.508v.914h2.188v-21.29zm-17.695 18.312v-16.25h15.508v16.25h-15.508zm26.352-16.656L1001 383.64h2.781l1.61-4.414h7.367l1.609 4.414h2.805l-6.602-17.133h-2.976zm-1.414 10.563l2.859-7.758h.094l2.836 7.758h-5.789zm18.476-6.172c-1.687 0-2.976.601-3.844 1.828v-1.492h-2.374v17.164h2.539v-6.578c1.015 1.437 2.257 2.164 3.796 2.164 1.774 0 3.196-.649 4.204-1.946.929-1.203 1.414-2.718 1.414-4.539 0-1.922-.485-3.453-1.446-4.656-1.054-1.297-2.468-1.945-4.289-1.945zm-.39 2.062c1.25 0 2.164.438 2.765 1.344.477.774.742 1.828.742 3.195 0 1.368-.289 2.422-.82 3.196-.594.812-1.508 1.218-2.758 1.218-.961 0-1.726-.382-2.304-1.125-.672-.82-.985-1.898-.985-3.218v-.211c0-1.274.266-2.305.797-3.078.594-.883 1.461-1.32 2.563-1.32zm14.89-2.062c-1.687 0-2.976.601-3.844 1.828v-1.492h-2.374v17.164h2.539v-6.578c1.015 1.437 2.257 2.164 3.796 2.164 1.774 0 3.196-.649 4.204-1.946.929-1.203 1.414-2.718 1.414-4.539 0-1.922-.485-3.453-1.446-4.656-1.054-1.297-2.468-1.945-4.289-1.945zm-.39 2.062c1.25 0 2.164.438 2.765 1.344.477.774.742 1.828.742 3.195 0 1.368-.289 2.422-.82 3.196-.594.812-1.508 1.218-2.758 1.218-.961 0-1.726-.382-2.304-1.125-.672-.82-.985-1.898-.985-3.218v-.211c0-1.274.266-2.305.797-3.078.594-.883 1.461-1.32 2.563-1.32z" fill="#111925" fill-opacity=".85"/><g style="mix-blend-mode:passthrough"><g clip-path="url(#e)"><path d="M886.917 367.417v4.333c0 1.197-.97 2.167-2.167 2.167h-4.333a2.167 2.167 0 0 1-2.167-2.167v-4.333c0-1.197.97-2.167 2.167-2.167h4.333c1.197 0 2.167.97 2.167 2.167zm-7.042.541v3.25c0 .599.485 1.084 1.083 1.084h3.25c.599 0 1.084-.485 1.084-1.084v-3.25c0-.598-.485-1.083-1.084-1.083h-3.25c-.598 0-1.083.485-1.083 1.083zm17.875-.541v4.333c0 1.197-.97 2.167-2.167 2.167h-4.333a2.167 2.167 0 0 1-2.167-2.167v-4.333c0-1.197.97-2.167 2.167-2.167h4.333c1.197 0 2.167.97 2.167 2.167zm-7.042.541v3.25c0 .599.485 1.084 1.084 1.084h3.25c.598 0 1.083-.485 1.083-1.084v-3.25c0-.598-.485-1.083-1.083-1.083h-3.25c-.599 0-1.084.485-1.084 1.083zm-3.791 10.292v4.333c0 1.197-.97 2.167-2.167 2.167h-4.333a2.167 2.167 0 0 1-2.167-2.167v-4.333c0-1.197.97-2.167 2.167-2.167h4.333c1.197 0 2.167.97 2.167 2.167zm-7.042.542v3.25c0 .598.485 1.083 1.083 1.083h3.25c.599 0 1.084-.485 1.084-1.083v-3.25c0-.599-.485-1.084-1.084-1.084h-3.25c-.598 0-1.083.485-1.083 1.084zm2.167-10.292h1.083c.3 0 .542.243.542.542v1.083c0 .3-.243.542-.542.542h-1.083a.542.542 0 0 1-.542-.542v-1.083c0-.3.242-.542.542-.542zm0 10.833h1.083c.3 0 .542.243.542.542v1.083c0 .3-.243.542-.542.542h-1.083a.542.542 0 0 1-.542-.542v-1.083c0-.3.242-.542.542-.542zm10.833-10.833h1.083c.3 0 .542.243.542.542v1.083c0 .3-.242.542-.542.542h-1.083a.542.542 0 0 1-.542-.542v-1.083c0-.3.243-.542.542-.542zm-1.354 8.396v1.083c0 .3-.243.542-.542.542h-1.083a.542.542 0 0 1-.542-.542v-1.083c0-.3.243-.542.542-.542h1.083c.3 0 .542.243.542.542zm4.333-.542h1.083c.3 0 .542.243.542.542v1.083c0 .3-.242.542-.542.542h-1.083a.542.542 0 0 1-.542-.542v-1.083c0-.3.243-.542.542-.542zm-5.958 5.959h1.083c.3 0 .542.242.542.541v1.084c0 .299-.243.541-.542.541h-1.083a.542.542 0 0 1-.542-.541v-1.084c0-.299.243-.541.542-.541zm2.979-2.98h1.083c.3 0 .542.243.542.542v1.083c0 .3-.242.542-.542.542h-1.083a.542.542 0 0 1-.542-.542v-1.083c0-.3.243-.542.542-.542zm2.98 2.98h1.082c.3 0 .542.242.542.541v1.084c0 .299-.242.541-.542.541h-1.083a.542.542 0 0 1-.542-.541v-1.084c0-.299.243-.541.542-.541z" fill="#111925" fill-opacity=".85"/></g></g></g></g></svg>